<!DOCTYPE svg PUBLIC "-//W3C//DTD SVG 20010904//EN" "http://www.w3.org/TR/2001/REC-SVG-20010904/DTD/svg10.dtd">
<svg version="1.0" xmlns="http://www.w3.org/2000/svg" width="200px" height="200px" viewBox="0 0 2000 2000" preserveAspectRatio="xMidYMid meet">
<g id="layer101" fill="#27a844" stroke="none">
 <path d="M917 1804 c-4 -4 -7 -108 -7 -232 0 -208 -2 -227 -20 -257 -33 -53 -71 -65 -207 -65 -245 0 -344 -26 -417 -111 -61 -72 -70 -115 -70 -354 l-1 -210 225 0 c202 1 232 3 295 22 76 24 154 69 196 114 l26 28 5 -63 c11 -126 109 -272 227 -334 80 -43 168 -54 426 -50 l210 3 3 170 c5 295 -18 396 -111 489 -91 90 -189 123 -392 132 -146 7 -173 14 -197 56 -10 17 -14 109 -18 343 l-5 320 -80 3 c-45 1 -84 0 -88 -4z"/>
 </g>

</svg>