<svg xmlns:dc="http://purl.org/dc/elements/1.1/" xmlns:cc="http://creativecommons.org/ns#" xmlns:rdf="http://www.w3.org/1999/02/22-rdf-syntax-ns#" xmlns:svg="http://www.w3.org/2000/svg" xmlns="http://www.w3.org/2000/svg" height="77.09092406595994" width="551.2727375188147" version="1.1" style="">
<g id="logo-group" class="">
    <g id="title" style="font-style:normal;font-weight:500;font-size:72px;line-height:1;font-family:'Raleway Medium Alt1';font-variant-ligatures:none;text-align:center;text-anchor:middle;" aria-label="öKOGRAM">
      <path id="path146198" style="font-style: normal;font-weight: 500;font-size: 72px;line-height: 1;fill: rgb(255, 255, 255);" d="m18.551357043457017,-269.3425256347656 h6.66 v-9.18 h-6.66 zm14.58,0 h6.66 v-9.18 h-6.66 zm-3.96,57.06 c3.51,0 6.75,-0.6300000000000001 9.629999999999999,-1.98 c2.8800000000000003,-1.26 5.4,-3.06 7.5600000000000005,-5.3100000000000005 c2.0700000000000003,-2.16 3.6900000000000004,-4.77 4.859999999999999,-7.74 c1.08,-2.8800000000000003 1.7100000000000004,-6.029999999999999 1.7100000000000004,-9.27 c0,-3.24 -0.6300000000000001,-6.3900000000000015 -1.7999999999999998,-9.360000000000001 c-1.1700000000000002,-2.8800000000000003 -2.79,-5.49 -4.859999999999999,-7.74 c-2.0700000000000003,-2.16 -4.59,-3.96 -7.47,-5.3100000000000005 c-2.9699999999999998,-1.26 -6.21,-1.98 -9.629999999999999,-1.98 c-3.51,0 -6.75,0.7200000000000002 -9.629999999999999,1.98 c-2.8800000000000003,1.35 -5.4,3.15 -7.47,5.3100000000000005 c-2.0700000000000003,2.25 -3.6900000000000004,4.859999999999999 -4.859999999999999,7.74 c-1.1700000000000002,2.9699999999999998 -1.7100000000000004,6.12 -1.7100000000000004,9.360000000000001 c0,3.24 0.54,6.3900000000000015 1.7100000000000004,9.27 c1.08,2.9699999999999998 2.7,5.58 4.77,7.74 c2.0700000000000003,2.25 4.59,4.050000000000001 7.47,5.3100000000000005 c2.8800000000000003,1.35 6.12,1.98 9.719999999999999,1.98 zm-15.57,-24.209999999999997 c0,-2.4299999999999997 0.3600000000000001,-4.6800000000000015 1.1700000000000002,-6.840000000000001 c0.8100000000000003,-2.16 1.8900000000000001,-3.96 3.33,-5.58 c1.4400000000000004,-1.62 3.06,-2.8800000000000003 4.95,-3.7800000000000002 c1.8900000000000001,-0.9000000000000001 3.96,-1.4400000000000004 6.12,-1.4400000000000004 c2.16,0 4.140000000000001,0.45000000000000007 6.029999999999999,1.35 c1.8900000000000001,0.9000000000000001 3.5999999999999996,2.16 5.04,3.7800000000000002 c1.4400000000000004,1.62 2.52,3.4200000000000004 3.33,5.58 c0.8100000000000003,2.16 1.26,4.41 1.26,6.75 c0,2.52 -0.45000000000000007,4.77 -1.26,6.9300000000000015 c-0.8100000000000003,2.16 -1.8900000000000001,3.96 -3.33,5.58 c-1.4400000000000004,1.62 -3.15,2.79 -5.04,3.6900000000000004 c-1.8900000000000001,0.9000000000000001 -3.87,1.35 -6.029999999999999,1.35 c-2.16,0 -4.2299999999999995,-0.45000000000000007 -6.12,-1.35 c-1.8900000000000001,-0.9000000000000001 -3.51,-2.0700000000000003 -4.95,-3.6900000000000004 c-1.4400000000000004,-1.53 -2.52,-3.33 -3.33,-5.49 c-0.8100000000000003,-2.0700000000000003 -1.1700000000000002,-4.32 -1.1700000000000002,-6.840000000000001 z" transform="translate(0,283.947998046875) "/>
      <path id="path146200" style="font-style: normal; font-weight: 500; font-size: 72px; line-height: 1; fill: rgb(255, 255, 255);" d="m89.84730217285153,-276.992523727417 h-8.100000000000001 v33.48 l8.100000000000001,-8.73 zm16.02,28.08 l25.65,-28.17 h-8.73 l-32.94,35.37 l-8.100000000000001,8.64 V-213.182523727417 h8.100000000000001 v-19.53 l11.07,-11.52 l23.22,31.05 h8.82 z" transform="translate(0,283.947998046875) "/>
      <path id="path146202" style="font-style: normal; font-weight: 500; font-size: 72px; line-height: 1; fill: rgb(198, 199, 202);" d="m203.30262230224605,-241.62252754211426 c-0.27,1.8900000000000001 -0.6300000000000001,3.7800000000000002 -1.26,5.58 c-0.99,3.06 -2.4299999999999997,5.760000000000002 -4.32,8.100000000000001 c-1.8900000000000001,2.3400000000000003 -4.2299999999999995,4.32 -6.840000000000001,5.760000000000002 c-2.79,1.4400000000000004 -5.85,2.16 -9.18,2.16 c-3.33,0 -6.3,-0.6300000000000001 -9,-2.0700000000000003 c-2.7,-1.35 -5.04,-3.24 -6.9300000000000015,-5.58 c-1.98,-2.3400000000000003 -3.4200000000000004,-4.95 -4.5,-8.01 c-0.6300000000000001,-1.8900000000000001 -1.08,-3.87 -1.35,-5.9399999999999995 h-8.19 c0.27,2.8800000000000003 0.9000000000000001,5.760000000000002 1.98,8.459999999999999 c1.35,3.96 3.4200000000000004,7.38 6.12,10.440000000000001 c2.6100000000000003,3.06 5.760000000000002,5.49 9.450000000000001,7.29 c3.6900000000000004,1.7999999999999998 7.83,2.7 12.330000000000002,2.7 c4.32,0 8.280000000000001,-0.8100000000000003 11.97,-2.6100000000000003 c3.6900000000000004,-1.7999999999999998 6.840000000000001,-4.140000000000001 9.54,-7.110000000000001 c2.7,-2.9699999999999998 4.77,-6.3900000000000015 6.3,-10.35 c1.08,-2.79 1.7999999999999998,-5.760000000000002 2.16,-8.82 zm-42.03,-12.69 c0.99,-2.9699999999999998 2.4299999999999997,-5.58 4.32,-8.01 c1.8900000000000001,-2.3400000000000003 4.2299999999999995,-4.2299999999999995 6.9300000000000015,-5.67 c2.7,-1.4400000000000004 5.760000000000002,-2.16 9.18,-2.16 c3.15,0 6.12,0.7200000000000002 8.82,2.0700000000000003 c2.7,1.4400000000000004 4.95,3.24 6.9300000000000015,5.58 c1.98,2.3400000000000003 3.4200000000000004,4.95 4.5,8.01 c0.54,1.62 0.99,3.33 1.26,4.95 h8.19 c-0.3600000000000001,-2.4299999999999997 -0.99,-4.95 -1.7999999999999998,-7.29 c-1.4400000000000004,-3.87 -3.51,-7.29 -6.12,-10.440000000000001 c-2.7,-3.06 -5.85,-5.49 -9.450000000000001,-7.38 c-3.6900000000000004,-1.8900000000000001 -7.83,-2.8800000000000003 -12.24,-2.8800000000000003 c-4.41,0 -8.37,0.9000000000000001 -12.059999999999999,2.7 c-3.6900000000000004,1.7999999999999998 -6.840000000000001,4.140000000000001 -9.54,7.110000000000001 c-2.7,3.06 -4.859999999999999,6.48 -6.3900000000000015,10.35 c-0.99,2.6100000000000003 -1.7100000000000004,5.220000000000001 -1.98,7.83 h8.19 c0.27,-1.53 0.7200000000000002,-3.15 1.26,-4.77 z" transform="translate(0,283.947998046875) "/>
      <path id="path146204" style="font-style: normal; font-weight: 500; font-size: 72px; line-height: 1; fill: rgb(198, 199, 202);" d="m259.2268320434571,-222.00252754211425 c-2.79,-1.26 -5.13,-3.06 -7.02,-5.4 c-1.98,-2.3400000000000003 -3.5999999999999996,-4.95 -4.6800000000000015,-8.01 c-1.1700000000000002,-3.06 -1.7100000000000004,-6.21 -1.7100000000000004,-9.719999999999999 c0,-3.15 0.45000000000000007,-6.3 1.53,-9.360000000000001 c0.99,-3.06 2.4299999999999997,-5.67 4.32,-8.01 c1.7999999999999998,-2.3400000000000003 4.050000000000001,-4.140000000000001 6.75,-5.58 c2.6100000000000003,-1.4400000000000004 5.49,-2.16 8.82,-2.16 c3.96,0 7.47,0.9000000000000001 10.709999999999999,2.7 c3.15,1.7999999999999998 5.67,4.59 7.65,8.280000000000001 l6.21,-4.32 c-2.16,-4.050000000000001 -5.220000000000001,-7.47 -9.18,-10.08 c-3.96,-2.52 -9.09,-3.87 -15.209999999999999,-3.87 c-4.32,0 -8.280000000000001,0.9000000000000001 -11.879999999999999,2.6100000000000003 c-3.6900000000000004,1.7999999999999998 -6.840000000000001,4.140000000000001 -9.450000000000001,7.110000000000001 c-2.7,2.9699999999999998 -4.77,6.3900000000000015 -6.21,10.26 c-1.53,3.87 -2.25,7.92 -2.25,12.24 c0,4.2299999999999995 0.7200000000000002,8.19 2.25,12.059999999999999 c1.53,3.96 3.5999999999999996,7.38 6.3,10.440000000000001 c2.6100000000000003,3.06 5.67,5.49 9.360000000000001,7.29 c3.5999999999999996,1.8900000000000001 7.5600000000000005,2.79 11.879999999999999,2.79 c4.5,0 8.64,-1.08 12.509999999999998,-3.4200000000000004 v-7.5600000000000005 c-3.7800000000000002,2.52 -7.74,3.6900000000000004 -11.879999999999999,3.6900000000000004 c-3.24,0 -6.12,-0.6300000000000001 -8.82,-1.98 zm13.86,-23.04 v6.12 h13.77 V-213.18252754211426 h6.840000000000001 V-245.04252754211427 z" transform="translate(0,283.947998046875) "/>
      <path id="path146206" style="font-style: normal; font-weight: 500; font-size: 72px; line-height: 1; fill: rgb(148, 150, 156);" d="m358.15280769042977,-237.662523727417 c1.98,-0.45000000000000007 3.87,-1.35 5.49,-2.6100000000000003 c1.62,-1.1700000000000002 3.06,-2.6100000000000003 4.2299999999999995,-4.32 c1.1700000000000002,-1.62 2.0700000000000003,-3.51 2.7,-5.58 c0.6300000000000001,-2.0700000000000003 0.99,-4.2299999999999995 0.99,-6.48 c0,-2.52 -0.54,-4.95 -1.4400000000000004,-7.38 c-0.99,-2.4299999999999997 -2.3400000000000003,-4.59 -4.050000000000001,-6.57 c-1.7100000000000004,-1.98 -3.7800000000000002,-3.51 -6.12,-4.6800000000000015 c-2.3400000000000003,-1.1700000000000002 -4.95,-1.7999999999999998 -7.74,-1.7999999999999998 h-27.360000000000003 V-213.182523727417 h8.100000000000001 v-22.95 h8.100000000000001 l-4.5,-7.199999999999999 h-3.5999999999999996 V-269.882523727417 h18.81 c1.53,0 2.9699999999999998,0.3600000000000001 4.41,1.08 c1.4400000000000004,0.7200000000000002 2.6100000000000003,1.62 3.6900000000000004,2.8800000000000003 c1.08,1.26 1.8900000000000001,2.6100000000000003 2.52,4.2299999999999995 c0.6300000000000001,1.62 0.99,3.33 0.99,5.04 c0,1.7999999999999998 -0.27,3.4200000000000004 -0.8100000000000003,5.04 c-0.6300000000000001,1.7100000000000004 -1.35,3.06 -2.25,4.32 c-0.99,1.26 -2.16,2.25 -3.51,2.8800000000000003 c-1.35,0.7200000000000002 -2.8800000000000003,1.08 -4.5,1.08 h-7.110000000000001 l4.6800000000000015,7.199999999999999 l14.58,22.95 h9.18 z" transform="translate(0,283.947998046875) "/>
      <path id="path146208" style="font-style: normal; font-weight: 500; font-size: 72px; line-height: 1; fill: rgb(148, 150, 156);" d="m432.4552619140626,-268.35252372741695 l-3.51,9.54 l8.100000000000001,20.61 h-16.02 l-2.4299999999999997,6.3 h20.25 l7.5600000000000005,18.72 h8.64 zm-3.51,-8.73 h-6.840000000000001 l-26.19,63.9 h8.280000000000001 l21.33,-54.54 z" transform="translate(0,283.947998046875) "/>
      <path id="path146210" style="font-style: normal; font-weight: 500; font-size: 72px; line-height: 1; fill: rgb(91, 94, 103);" d="M482.41139519042963,-277.08252372741697 V-213.182523727417 h8.100000000000001 V-262.592523727417 l14.31,25.560000000000002 l4.32,-7.38 l-18.18,-32.67 zm54.900000000000006,0 l-23.22,41.49 l-4.2299999999999995,7.38 l1.98,3.51 h4.59 l21.240000000000002,-37.89 V-213.182523727417 h8.100000000000001 V-277.08252372741697 z" transform="translate(0,283.947998046875) "/>
    </g>
</g>
</svg>