<svg xmlns:dc="http://purl.org/dc/elements/1.1/" xmlns:cc="http://creativecommons.org/ns#" xmlns:rdf="http://www.w3.org/1999/02/22-rdf-syntax-ns#" xmlns:svg="http://www.w3.org/2000/svg" xmlns="http://www.w3.org/2000/svg" xmlns:xlink="http://www.w3.org/1999/xlink" height="154.6666910383426" width="602.3333500888602" version="1.1" style=""><rect id="backgroundrect" width="100%" height="100%" x="0" y="0" fill="none" stroke="none"/>
<g class="currentLayer" style=""><title>Layer 1</title>
	  <defs>
		<filter id="shadow" x="-20%" y="-20%" width="140%" height="140%">
		<feGaussianBlur stdDeviation="3 3" result="shadow"/>
		<feOffset dx="4" dy="4"/>
		</filter>
		</defs>
	<g id="layer101" fill="#000000" stroke="none" width="163.7868224602401" height="163.7868224602401" x="-16.37868224602401" y="298.0119182083739" class="">
	 <path style="filter: url(#shadow);" d="M72.28907268744967,145.45979153900828 c-0.36788465597969144,-0.36788465597969144 -0.6437981479644593,-9.932885711451652 -0.6437981479644593,-21.337310046822065 c0,-19.13000211094392 -0.18394232798984544,-20.877454226847455 -1.839423279898454,-23.63658914669513 c-3.035048411832449,-4.8744716917309034 -6.529952643639511,-5.978125659669975 -19.038030946949,-5.978125659669975 c-22.53293517875606,0 -31.63808041425341,-2.39125026386799 -38.35197538588276,-10.208799203436419 c-5.6102410036902866,-6.6219238076344356 -6.4379814796445896,-10.57668385941611 -6.4379814796445896,-32.55779205420263 l-0.09197116399492276,-19.313944438933767 l20.693511898857604,0 c18.578175126974386,0.09197116399492276 21.337310046822065,0.27591349198476856 27.131493378502196,2.0233656078882993 c6.989808463614125,2.207307935878145 14.163559255218095,6.346010315649666 18.02634814300485,10.484712695421187 l2.39125026386799,2.5751925918578356 l0.45985581997461394,-5.79418333168013 c1.0116828039441497,-11.58836666336026 10.024856875446574,-25.016156606618974 20.877454226847455,-30.718368774304185 c7.357693119593816,-3.954760051781676 15.451155551147012,-4.966442855725826 39.17971586183707,-4.598558199746135 l19.313944438933767,0.27591349198476856 l0.27591349198476856,15.635097879136858 c0.45985581997461394,27.131493378502196 -1.6554809519086084,36.420580941989385 -10.208799203436419,44.9738991935172 c-8.369375923537966,8.277404759543042 -17.38254999504039,11.312453171375491 -36.0526962860097,12.140193647329795 c-13.427789943258714,0.6437981479644593 -15.911011371121624,1.2875962959289178 -18.11831930699977,5.150385183715671 c-0.919711639949227,1.5635097879136859 -1.2875962959289178,10.024856875446574 -1.6554809519086084,31.546109250258485 l-0.45985581997461394,29.430772478375264 l-7.357693119593816,0.27591349198476856 c-4.138702379771521,0.09197116399492276 -7.725577775573506,0 -8.093462431553197,-0.36788465597969144 z" id="svg_1"/>
	</g>
      <g id="title" style="" aria-label="leafe" class="">

        <path id="path147230" style="fill: black;filter: url(#shadow);" d="m200.52919002354884,-207.64532619710462 q-13.26114836883545,0 -19.891722553253175,-6.4560853900909425 q-6.4560853900909425,-6.630574184417725 -6.4560853900909425,-20.066211347579955 v-88.98928510665893 q0,-3.4897758865356443 1.9193767375946047,-5.409152624130249 q1.9193767375946047,-1.9193767375946047 5.409152624130249,-1.9193767375946047 q3.4897758865356443,0 5.409152624130249,1.9193767375946047 q1.9193767375946047,1.9193767375946047 1.9193767375946047,5.409152624130249 v88.98928510665893 q0,7.154040567398071 2.268354326248169,9.596883687973023 q2.4428431205749512,2.268354326248169 9.42239489364624,2.268354326248169 q7.503018156051636,0 7.503018156051636,7.328529361724853 q0.17448879432678224,3.4897758865356443 -1.7448879432678224,5.409152624130249 q-1.9193767375946047,1.9193767375946047 -5.758130212783813,1.9193767375946047 z" transform="translate(0,344.7320556640625) "/>
        <path id="path147232" style="fill: black;filter: url(#shadow);" d="m241.2232292546014,-245.8583666085103 v4.187731063842774 q0,7.677506950378418 1.7448879432678224,11.865238014221191 q1.7448879432678224,4.013242269515992 5.9326190071105955,5.758130212783813 q4.187731063842774,1.7448879432678224 11.865238014221191,1.7448879432678224 h14.308081134796142 q8.898928510665893,0 13.086659574508667,-1.5703991489410403 q4.3622198581695555,-1.7448879432678224 5.758130212783813,-5.9326190071105955 q1.0469327659606935,-3.4897758865356443 2.7918207092285163,-5.060175035476685 q1.7448879432678224,-1.7448879432678224 5.060175035476685,-1.7448879432678224 q3.3152870922088624,0 5.060175035476685,1.5703991489410403 q1.9193767375946047,1.3959103546142586 1.9193767375946047,4.187731063842774 q0,1.2214215602874756 -0.17448879432678224,1.7448879432678224 Q304.73715038955015,-207.645320650945 275.074055353997,-207.645320650945 h-14.308081134796142 q-17.448879432678222,0 -25.82434156036377,-8.375462127685546 q-8.375462127685546,-8.375462127685546 -8.375462127685546,-25.649852766036986 v-20.24070014190674 q0,-17.623368227005006 8.375462127685546,-25.99883035469055 q8.375462127685546,-8.375462127685546 25.82434156036377,-8.200973333358764 h14.308081134796142 q17.448879432678222,0 25.82434156036377,8.375462127685546 q8.375462127685546,8.375462127685546 8.375462127685546,25.82434156036377 v8.724439716339111 q0,3.4897758865356443 -1.9193767375946047,5.409152624130249 q-1.9193767375946047,1.9193767375946047 -5.409152624130249,1.9193767375946047 zm0,-14.657058723449707 h53.39357106399536 v-1.3959103546142586 q0,-7.677506950378418 -1.7448879432678224,-11.865238014221191 q-1.7448879432678224,-4.187731063842774 -5.9326190071105955,-5.9326190071105955 q-4.187731063842774,-1.7448879432678224 -11.865238014221191,-1.7448879432678224 h-14.308081134796142 q-7.677506950378418,-0.17448879432678224 -11.865238014221191,1.5703991489410403 q-4.187731063842774,1.7448879432678224 -5.9326190071105955,5.9326190071105955 q-1.7448879432678224,4.187731063842774 -1.7448879432678224,12.039726808547973 z" transform="translate(0,344.7320556640625) "/>
        <path id="path147234" style="fill: black;filter: url(#shadow);" d="m384.4376893025062,-296.11113853675795 q17.448879432678222,0 25.82434156036377,8.375462127685546 q8.375462127685546,8.375462127685546 8.375462127685546,25.82434156036377 v46.93748567390441 q0,3.4897758865356443 -1.9193767375946047,5.409152624130249 q-1.9193767375946047,1.9193767375946047 -5.409152624130249,1.9193767375946047 q-3.4897758865356443,0 -5.409152624130249,-1.9193767375946047 q-1.9193767375946047,-1.9193767375946047 -1.9193767375946047,-5.409152624130249 V-218.9870914443202 Q394.73252816778654,-207.64531981307937 376.7601823521279,-207.64531981307937 h-9.771372482299805 q-14.657058723449707,0 -21.81109929084778,-7.154040567398071 q-7.154040567398071,-7.154040567398071 -7.154040567398071,-21.81109929084778 q0,-14.657058723449707 6.979551773071289,-21.81109929084778 q7.154040567398071,-7.154040567398071 21.98558808517456,-7.154040567398071 h36.81713560295105 q-0.5234663829803451,-9.073417304992676 -4.71119744682312,-12.388704397201538 q-4.187731063842774,-3.4897758865356443 -14.657058723449707,-3.4897758865356443 h-10.12035007095337 q-8.724439716339111,0 -13.086659574508667,1.2214215602874756 q-4.187731063842774,1.2214215602874756 -5.9326190071105955,4.187731063842774 q-1.5703991489410403,3.6642646808624266 -3.3152870922088624,5.060175035476685 q-1.7448879432678224,1.3959103546142586 -4.8856862411499025,1.3959103546142586 q-3.14079829788208,0 -5.234663829803467,-1.5703991489410403 q-1.9193767375946047,-1.5703991489410403 -1.9193767375946047,-4.187731063842774 q0,-1.0469327659606935 0.17448879432678224,-1.7448879432678224 q2.6173319149017336,-9.771372482299805 10.818305248260499,-14.308081134796142 q8.375462127685546,-4.71119744682312 23.381498439788817,-4.71119744682312 zm18.670300992965696,61.769033191680904 q0.17448879432678224,-0.5234663829803451 0.3489775886535652,-1.0469327659606935 q0.17448879432678224,-0.6979551773071303 0.5234663829803451,-1.3959103546142586 v-14.13359234046936 h-36.99162439727783 q-5.9326190071105955,0 -8.898928510665893,1.2214215602874756 q-2.9663095035552978,1.2214215602874756 -4.187731063842774,4.187731063842774 q-1.2214215602874756,2.9663095035552978 -1.2214215602874756,8.898928510665893 q0,5.9326190071105955 1.2214215602874756,8.898928510665893 q1.2214215602874756,2.9663095035552978 4.187731063842774,4.187731063842774 q2.9663095035552978,1.2214215602874756 8.898928510665893,1.2214215602874756 h9.771372482299805 q22.160076879501343,0 26.347807943344115,-12.039726808547973 z" transform="translate(0,344.7320556640625) "/>
        <path id="path147236" style="fill: black;filter: url(#shadow);" d="m489.23996482427765,-296.1111449207832 q7.328529361724853,0 7.328529361724853,7.328529361724853 q0,3.4897758865356443 -1.9193767375946047,5.409152624130249 q-1.9193767375946047,1.9193767375946047 -5.409152624130249,1.9193767375946047 h-17.97234581565857 v66.48023063850403 q0,3.4897758865356443 -1.9193767375946047,5.409152624130249 q-1.9193767375946047,1.9193767375946047 -5.409152624130249,1.9193767375946047 q-3.4897758865356443,0 -5.409152624130249,-1.9193767375946047 q-1.9193767375946047,-1.9193767375946047 -1.9193767375946047,-5.409152624130249 v-66.48023063850403 h-6.4560853900909425 q-3.4897758865356443,0 -5.409152624130249,-1.9193767375946047 q-1.9193767375946047,-1.9193767375946047 -1.9193767375946047,-5.409152624130249 q0,-7.328529361724853 7.328529361724853,-7.328529361724853 h6.4560853900909425 v-0.6979551773071303 q0,-17.099901844024657 8.200973333358764,-25.30087517738342 q8.375462127685546,-8.375462127685546 25.475363971710205,-8.375462127685546 q6.28159659576416,0 6.28159659576416,7.328529361724853 q0,3.4897758865356443 -1.7448879432678224,5.409152624130249 q-1.5703991489410403,1.9193767375946047 -4.536708652496338,1.9193767375946047 q-7.503018156051636,0 -11.516260425567626,1.7448879432678224 q-4.013242269515992,1.5703991489410403 -5.758130212783813,5.758130212783813 q-1.7448879432678224,4.013242269515992 -1.7448879432678224,11.516260425567626 v0.6979551773071303 z" transform="translate(0,344.7320556640625) "/>
      </g>
	  		<g id="layer101" fill="#27a844" stroke="none" width="163.7868224602401" height="163.7868224602401" x="-16.37868224602401" y="298.0119182083739" class="">
	 <path d="M72.28907268744967,145.45979153900828 c-0.36788465597969144,-0.36788465597969144 -0.6437981479644593,-9.932885711451652 -0.6437981479644593,-21.337310046822065 c0,-19.13000211094392 -0.18394232798984544,-20.877454226847455 -1.839423279898454,-23.63658914669513 c-3.035048411832449,-4.8744716917309034 -6.529952643639511,-5.978125659669975 -19.038030946949,-5.978125659669975 c-22.53293517875606,0 -31.63808041425341,-2.39125026386799 -38.35197538588276,-10.208799203436419 c-5.6102410036902866,-6.6219238076344356 -6.4379814796445896,-10.57668385941611 -6.4379814796445896,-32.55779205420263 l-0.09197116399492276,-19.313944438933767 l20.693511898857604,0 c18.578175126974386,0.09197116399492276 21.337310046822065,0.27591349198476856 27.131493378502196,2.0233656078882993 c6.989808463614125,2.207307935878145 14.163559255218095,6.346010315649666 18.02634814300485,10.484712695421187 l2.39125026386799,2.5751925918578356 l0.45985581997461394,-5.79418333168013 c1.0116828039441497,-11.58836666336026 10.024856875446574,-25.016156606618974 20.877454226847455,-30.718368774304185 c7.357693119593816,-3.954760051781676 15.451155551147012,-4.966442855725826 39.17971586183707,-4.598558199746135 l19.313944438933767,0.27591349198476856 l0.27591349198476856,15.635097879136858 c0.45985581997461394,27.131493378502196 -1.6554809519086084,36.420580941989385 -10.208799203436419,44.9738991935172 c-8.369375923537966,8.277404759543042 -17.38254999504039,11.312453171375491 -36.0526962860097,12.140193647329795 c-13.427789943258714,0.6437981479644593 -15.911011371121624,1.2875962959289178 -18.11831930699977,5.150385183715671 c-0.919711639949227,1.5635097879136859 -1.2875962959289178,10.024856875446574 -1.6554809519086084,31.546109250258485 l-0.45985581997461394,29.430772478375264 l-7.357693119593816,0.27591349198476856 c-4.138702379771521,0.09197116399492276 -7.725577775573506,0 -8.093462431553197,-0.36788465597969144 z" id="svg_1"/>
	</g>
      <g id="title" style="" aria-label="leafe" class="">

        <path id="path147230" style="fill: rgb(74, 121, 151);" d="m200.52919002354884,-207.64532619710462 q-13.26114836883545,0 -19.891722553253175,-6.4560853900909425 q-6.4560853900909425,-6.630574184417725 -6.4560853900909425,-20.066211347579955 v-88.98928510665893 q0,-3.4897758865356443 1.9193767375946047,-5.409152624130249 q1.9193767375946047,-1.9193767375946047 5.409152624130249,-1.9193767375946047 q3.4897758865356443,0 5.409152624130249,1.9193767375946047 q1.9193767375946047,1.9193767375946047 1.9193767375946047,5.409152624130249 v88.98928510665893 q0,7.154040567398071 2.268354326248169,9.596883687973023 q2.4428431205749512,2.268354326248169 9.42239489364624,2.268354326248169 q7.503018156051636,0 7.503018156051636,7.328529361724853 q0.17448879432678224,3.4897758865356443 -1.7448879432678224,5.409152624130249 q-1.9193767375946047,1.9193767375946047 -5.758130212783813,1.9193767375946047 z" transform="translate(0,344.7320556640625) "/>
        <path id="path147232" style="fill: rgb(74, 121, 151);" d="m241.2232292546014,-245.8583666085103 v4.187731063842774 q0,7.677506950378418 1.7448879432678224,11.865238014221191 q1.7448879432678224,4.013242269515992 5.9326190071105955,5.758130212783813 q4.187731063842774,1.7448879432678224 11.865238014221191,1.7448879432678224 h14.308081134796142 q8.898928510665893,0 13.086659574508667,-1.5703991489410403 q4.3622198581695555,-1.7448879432678224 5.758130212783813,-5.9326190071105955 q1.0469327659606935,-3.4897758865356443 2.7918207092285163,-5.060175035476685 q1.7448879432678224,-1.7448879432678224 5.060175035476685,-1.7448879432678224 q3.3152870922088624,0 5.060175035476685,1.5703991489410403 q1.9193767375946047,1.3959103546142586 1.9193767375946047,4.187731063842774 q0,1.2214215602874756 -0.17448879432678224,1.7448879432678224 Q304.73715038955015,-207.645320650945 275.074055353997,-207.645320650945 h-14.308081134796142 q-17.448879432678222,0 -25.82434156036377,-8.375462127685546 q-8.375462127685546,-8.375462127685546 -8.375462127685546,-25.649852766036986 v-20.24070014190674 q0,-17.623368227005006 8.375462127685546,-25.99883035469055 q8.375462127685546,-8.375462127685546 25.82434156036377,-8.200973333358764 h14.308081134796142 q17.448879432678222,0 25.82434156036377,8.375462127685546 q8.375462127685546,8.375462127685546 8.375462127685546,25.82434156036377 v8.724439716339111 q0,3.4897758865356443 -1.9193767375946047,5.409152624130249 q-1.9193767375946047,1.9193767375946047 -5.409152624130249,1.9193767375946047 zm0,-14.657058723449707 h53.39357106399536 v-1.3959103546142586 q0,-7.677506950378418 -1.7448879432678224,-11.865238014221191 q-1.7448879432678224,-4.187731063842774 -5.9326190071105955,-5.9326190071105955 q-4.187731063842774,-1.7448879432678224 -11.865238014221191,-1.7448879432678224 h-14.308081134796142 q-7.677506950378418,-0.17448879432678224 -11.865238014221191,1.5703991489410403 q-4.187731063842774,1.7448879432678224 -5.9326190071105955,5.9326190071105955 q-1.7448879432678224,4.187731063842774 -1.7448879432678224,12.039726808547973 z" transform="translate(0,344.7320556640625) "/>
        <path id="path147234" style="fill: rgb(74, 121, 151);" d="m384.4376893025062,-296.11113853675795 q17.448879432678222,0 25.82434156036377,8.375462127685546 q8.375462127685546,8.375462127685546 8.375462127685546,25.82434156036377 v46.93748567390441 q0,3.4897758865356443 -1.9193767375946047,5.409152624130249 q-1.9193767375946047,1.9193767375946047 -5.409152624130249,1.9193767375946047 q-3.4897758865356443,0 -5.409152624130249,-1.9193767375946047 q-1.9193767375946047,-1.9193767375946047 -1.9193767375946047,-5.409152624130249 V-218.9870914443202 Q394.73252816778654,-207.64531981307937 376.7601823521279,-207.64531981307937 h-9.771372482299805 q-14.657058723449707,0 -21.81109929084778,-7.154040567398071 q-7.154040567398071,-7.154040567398071 -7.154040567398071,-21.81109929084778 q0,-14.657058723449707 6.979551773071289,-21.81109929084778 q7.154040567398071,-7.154040567398071 21.98558808517456,-7.154040567398071 h36.81713560295105 q-0.5234663829803451,-9.073417304992676 -4.71119744682312,-12.388704397201538 q-4.187731063842774,-3.4897758865356443 -14.657058723449707,-3.4897758865356443 h-10.12035007095337 q-8.724439716339111,0 -13.086659574508667,1.2214215602874756 q-4.187731063842774,1.2214215602874756 -5.9326190071105955,4.187731063842774 q-1.5703991489410403,3.6642646808624266 -3.3152870922088624,5.060175035476685 q-1.7448879432678224,1.3959103546142586 -4.8856862411499025,1.3959103546142586 q-3.14079829788208,0 -5.234663829803467,-1.5703991489410403 q-1.9193767375946047,-1.5703991489410403 -1.9193767375946047,-4.187731063842774 q0,-1.0469327659606935 0.17448879432678224,-1.7448879432678224 q2.6173319149017336,-9.771372482299805 10.818305248260499,-14.308081134796142 q8.375462127685546,-4.71119744682312 23.381498439788817,-4.71119744682312 zm18.670300992965696,61.769033191680904 q0.17448879432678224,-0.5234663829803451 0.3489775886535652,-1.0469327659606935 q0.17448879432678224,-0.6979551773071303 0.5234663829803451,-1.3959103546142586 v-14.13359234046936 h-36.99162439727783 q-5.9326190071105955,0 -8.898928510665893,1.2214215602874756 q-2.9663095035552978,1.2214215602874756 -4.187731063842774,4.187731063842774 q-1.2214215602874756,2.9663095035552978 -1.2214215602874756,8.898928510665893 q0,5.9326190071105955 1.2214215602874756,8.898928510665893 q1.2214215602874756,2.9663095035552978 4.187731063842774,4.187731063842774 q2.9663095035552978,1.2214215602874756 8.898928510665893,1.2214215602874756 h9.771372482299805 q22.160076879501343,0 26.347807943344115,-12.039726808547973 z" transform="translate(0,344.7320556640625) "/>
        <path id="path147236" style="fill: rgb(74, 121, 151);" d="m489.23996482427765,-296.1111449207832 q7.328529361724853,0 7.328529361724853,7.328529361724853 q0,3.4897758865356443 -1.9193767375946047,5.409152624130249 q-1.9193767375946047,1.9193767375946047 -5.409152624130249,1.9193767375946047 h-17.97234581565857 v66.48023063850403 q0,3.4897758865356443 -1.9193767375946047,5.409152624130249 q-1.9193767375946047,1.9193767375946047 -5.409152624130249,1.9193767375946047 q-3.4897758865356443,0 -5.409152624130249,-1.9193767375946047 q-1.9193767375946047,-1.9193767375946047 -1.9193767375946047,-5.409152624130249 v-66.48023063850403 h-6.4560853900909425 q-3.4897758865356443,0 -5.409152624130249,-1.9193767375946047 q-1.9193767375946047,-1.9193767375946047 -1.9193767375946047,-5.409152624130249 q0,-7.328529361724853 7.328529361724853,-7.328529361724853 h6.4560853900909425 v-0.6979551773071303 q0,-17.099901844024657 8.200973333358764,-25.30087517738342 q8.375462127685546,-8.375462127685546 25.475363971710205,-8.375462127685546 q6.28159659576416,0 6.28159659576416,7.328529361724853 q0,3.4897758865356443 -1.7448879432678224,5.409152624130249 q-1.5703991489410403,1.9193767375946047 -4.536708652496338,1.9193767375946047 q-7.503018156051636,0 -11.516260425567626,1.7448879432678224 q-4.013242269515992,1.5703991489410403 -5.758130212783813,5.758130212783813 q-1.7448879432678224,4.013242269515992 -1.7448879432678224,11.516260425567626 v0.6979551773071303 z" transform="translate(0,344.7320556640625) "/>
      </g>
  </g></svg>